# Blender 3.5.1
# www.blender.org
mtllib Grass.mtl
o GN3-material.005
v 0.011917 -0.011991 -0.007017
v 0.011917 -0.011991 -0.007017
v 0.011917 -0.011991 -0.007017
v 0.011917 -0.011991 -0.007017
v 0.011917 -0.011991 -0.007017
v 0.011917 -0.011991 -0.007017
v 0.010772 -0.011723 -0.003133
v 0.010772 -0.011723 -0.003133
v 0.010772 -0.011723 -0.003133
v 0.010772 -0.011723 -0.003133
v 0.010772 -0.011723 -0.003133
v 0.010772 -0.011723 -0.003133
v 0.011995 -0.006023 -0.007985
v 0.011995 -0.006023 -0.007985
v 0.011995 -0.006023 -0.007985
v 0.011995 -0.006023 -0.007985
v 0.011995 -0.006023 -0.007985
v 0.010802 -0.005343 -0.003985
v 0.010802 -0.005343 -0.003985
v 0.010802 -0.005343 -0.003985
v 0.010802 -0.005343 -0.003985
v 0.010802 -0.005343 -0.003985
v 0.010802 -0.005343 -0.003985
v 0.012427 0.004801 -0.010736
v 0.012427 0.004801 -0.010736
v 0.012427 0.004801 -0.010736
v 0.012427 0.004801 -0.010736
v 0.012427 0.004801 -0.010736
v 0.011266 0.006246 -0.006935
v 0.011266 0.006246 -0.006935
v 0.011266 0.006246 -0.006935
v 0.011266 0.006246 -0.006935
v 0.011266 0.006246 -0.006935
v 0.011266 0.006246 -0.006935
v 0.013015 0.015671 -0.014025
v 0.013015 0.015671 -0.014025
v 0.013015 0.015671 -0.014025
v 0.013015 0.015671 -0.014025
v 0.013015 0.015671 -0.014025
v 0.013015 0.015671 -0.014025
v 0.013015 0.015671 -0.014025
v 0.012005 0.017386 -0.010770
v 0.012005 0.017386 -0.010770
v 0.012005 0.017386 -0.010770
v 0.012005 0.017386 -0.010770
v 0.012005 0.017386 -0.010770
v 0.012005 0.017386 -0.010770
v 0.014085 0.027032 -0.019018
v 0.014085 0.027032 -0.019018
v 0.014085 0.027032 -0.019018
v 0.014085 0.027032 -0.019018
v 0.014085 0.027032 -0.019018
v 0.014085 0.027032 -0.019018
v 0.013074 0.028747 -0.015763
v 0.013074 0.028747 -0.015763
v 0.013074 0.028747 -0.015763
v 0.013074 0.028747 -0.015763
v 0.013074 0.028747 -0.015763
v 0.013074 0.028747 -0.015763
v 0.013074 0.028747 -0.015763
v 0.016944 0.049570 -0.031445
v 0.016944 0.049570 -0.031445
v 0.016944 0.049570 -0.031445
v 0.016944 0.049570 -0.031445
v 0.016944 0.049570 -0.031445
v 0.016008 0.051818 -0.028508
v 0.016008 0.051818 -0.028508
v 0.016008 0.051818 -0.028508
v 0.016008 0.051818 -0.028508
v 0.016008 0.051818 -0.028508
v 0.016008 0.051818 -0.028508
v 0.019990 0.069236 -0.044175
v 0.019990 0.069236 -0.044175
v 0.019990 0.069236 -0.044175
v 0.019990 0.069236 -0.044175
v 0.019990 0.069236 -0.044175
v 0.019990 0.069236 -0.044175
v 0.019990 0.069236 -0.044175
v 0.019990 0.069236 -0.044175
v 0.019461 0.070509 -0.042513
v 0.019461 0.070509 -0.042513
v 0.019461 0.070509 -0.042513
v 0.019461 0.070509 -0.042513
v 0.019461 0.070509 -0.042513
v 0.024527 0.088040 -0.057008
v 0.024527 0.088040 -0.057008
v 0.024527 0.088040 -0.057008
v 0.024527 0.088040 -0.057008
v 0.024490 0.088129 -0.056893
v 0.024490 0.088129 -0.056893
v 0.024490 0.088129 -0.056893
v 0.024490 0.088129 -0.056893
v 0.011876 -0.022172 -0.005679
v 0.011876 -0.022172 -0.005679
v 0.011876 -0.022172 -0.005679
v 0.011876 -0.022172 -0.005679
v 0.011876 -0.022172 -0.005679
v 0.011876 -0.022172 -0.005679
v 0.010748 -0.022450 -0.001790
v 0.010748 -0.022450 -0.001790
v 0.010748 -0.022450 -0.001790
v 0.010748 -0.022450 -0.001790
v 0.010748 -0.022450 -0.001790
v 0.010748 -0.022450 -0.001790
v 0.012977 -0.050380 -0.006128
v 0.012977 -0.050380 -0.006128
v 0.012977 -0.050380 -0.006128
v 0.012977 -0.050380 -0.006128
v 0.012977 -0.050380 -0.006128
v 0.012977 -0.050380 -0.006128
v 0.010882 -0.049867 0.000978
v 0.010882 -0.049867 0.000978
v 0.010882 -0.049867 0.000978
v 0.010882 -0.049867 0.000978
v 0.002094 0.009295 -0.004275
v 0.002094 0.009295 -0.004275
v 0.002094 0.009295 -0.004275
v 0.002094 0.009295 -0.004275
v 0.002094 0.009295 -0.004275
v 0.002094 0.009295 -0.004275
v 0.004958 0.012106 -0.001022
v 0.004958 0.012106 -0.001022
v 0.004958 0.012106 -0.001022
v 0.004958 0.012106 -0.001022
v 0.004958 0.012106 -0.001022
v 0.004958 0.012106 -0.001022
v -0.006470 0.031069 -0.015732
v -0.006470 0.031069 -0.015732
v -0.006470 0.031069 -0.015732
v -0.006470 0.031069 -0.015732
v -0.006470 0.031069 -0.015732
v -0.006470 0.031069 -0.015732
v -0.006470 0.031069 -0.015732
v -0.004526 0.035385 -0.013662
v -0.004526 0.035385 -0.013662
v -0.004526 0.035385 -0.013662
v -0.004526 0.035385 -0.013662
v -0.004526 0.035385 -0.013662
v -0.004526 0.035385 -0.013662
v -0.016038 0.047474 -0.028079
v -0.016038 0.047474 -0.028079
v -0.016038 0.047474 -0.028079
v -0.016038 0.047474 -0.028079
v -0.016038 0.047474 -0.028079
v -0.014250 0.051443 -0.026175
v -0.014250 0.051443 -0.026175
v -0.014250 0.051443 -0.026175
v -0.014250 0.051443 -0.026175
v -0.014250 0.051443 -0.026175
v -0.014250 0.051443 -0.026175
v -0.032729 0.068912 -0.049207
v -0.032729 0.068912 -0.049207
v -0.032729 0.068912 -0.049207
v -0.032729 0.068912 -0.049207
v -0.032729 0.068912 -0.049207
v -0.032729 0.068912 -0.049207
v -0.032729 0.068912 -0.049207
v -0.031463 0.071723 -0.047858
v -0.031463 0.071723 -0.047858
v -0.031463 0.071723 -0.047858
v -0.031463 0.071723 -0.047858
v -0.031463 0.071723 -0.047858
v -0.031463 0.071723 -0.047858
v -0.054004 0.087949 -0.074037
v -0.054004 0.087949 -0.074037
v -0.054004 0.087949 -0.074037
v -0.054004 0.087949 -0.074037
v -0.054004 0.087949 -0.074037
v -0.053875 0.088235 -0.073899
v -0.053875 0.088235 -0.073899
v -0.053875 0.088235 -0.073899
v -0.053875 0.088235 -0.073899
v 0.006338 -0.011143 0.001956
v 0.006338 -0.011143 0.001956
v 0.006338 -0.011143 0.001956
v 0.006338 -0.011143 0.001956
v 0.006338 -0.011143 0.001956
v 0.009495 -0.009320 0.005616
v 0.009495 -0.009320 0.005616
v 0.009495 -0.009320 0.005616
v 0.009495 -0.009320 0.005616
v 0.009495 -0.009320 0.005616
v 0.009495 -0.009320 0.005616
v 0.005561 -0.051231 0.003326
v 0.005561 -0.051231 0.003326
v 0.005561 -0.051231 0.003326
v 0.005561 -0.051231 0.003326
v 0.005561 -0.051231 0.003326
v 0.011677 -0.050919 0.010600
v 0.011677 -0.050919 0.010600
v 0.011677 -0.050919 0.010600
v 0.011677 -0.050919 0.010600
v 0.015862 -0.011856 -0.005864
v 0.015862 -0.011856 -0.005864
v 0.015862 -0.011856 -0.005864
v 0.015862 -0.011856 -0.005864
v 0.015862 -0.011856 -0.005864
v 0.015862 -0.011856 -0.005864
v 0.014717 -0.011588 -0.001979
v 0.014717 -0.011588 -0.001979
v 0.014717 -0.011588 -0.001979
v 0.014717 -0.011588 -0.001979
v 0.014717 -0.011588 -0.001979
v 0.014717 -0.011588 -0.001979
v 0.015940 -0.005887 -0.006831
v 0.015940 -0.005887 -0.006831
v 0.015940 -0.005887 -0.006831
v 0.015940 -0.005887 -0.006831
v 0.015940 -0.005887 -0.006831
v 0.014747 -0.005207 -0.002832
v 0.014747 -0.005207 -0.002832
v 0.014747 -0.005207 -0.002832
v 0.014747 -0.005207 -0.002832
v 0.014747 -0.005207 -0.002832
v 0.014747 -0.005207 -0.002832
v 0.014747 -0.005207 -0.002832
v 0.014747 -0.005207 -0.002832
v 0.016372 0.004936 -0.009582
v 0.016372 0.004936 -0.009582
v 0.016372 0.004936 -0.009582
v 0.016372 0.004936 -0.009582
v 0.016372 0.004936 -0.009582
v 0.016372 0.004936 -0.009582
v 0.016372 0.004936 -0.009582
v 0.015211 0.006381 -0.005782
v 0.015211 0.006381 -0.005782
v 0.015211 0.006381 -0.005782
v 0.015211 0.006381 -0.005782
v 0.015211 0.006381 -0.005782
v 0.015211 0.006381 -0.005782
v 0.016960 0.015807 -0.012872
v 0.016960 0.015807 -0.012872
v 0.016960 0.015807 -0.012872
v 0.016960 0.015807 -0.012872
v 0.016960 0.015807 -0.012872
v 0.015949 0.017522 -0.009617
v 0.015949 0.017522 -0.009617
v 0.015949 0.017522 -0.009617
v 0.015949 0.017522 -0.009617
v 0.015949 0.017522 -0.009617
v 0.015949 0.017522 -0.009617
v 0.018030 0.027168 -0.017864
v 0.018030 0.027168 -0.017864
v 0.018030 0.027168 -0.017864
v 0.018030 0.027168 -0.017864
v 0.018030 0.027168 -0.017864
v 0.018030 0.027168 -0.017864
v 0.017019 0.028883 -0.014609
v 0.017019 0.028883 -0.014609
v 0.017019 0.028883 -0.014609
v 0.017019 0.028883 -0.014609
v 0.017019 0.028883 -0.014609
v 0.020889 0.049706 -0.030291
v 0.020889 0.049706 -0.030291
v 0.020889 0.049706 -0.030291
v 0.020889 0.049706 -0.030291
v 0.020889 0.049706 -0.030291
v 0.020889 0.049706 -0.030291
v 0.020889 0.049706 -0.030291
v 0.019953 0.051954 -0.027354
v 0.019953 0.051954 -0.027354
v 0.019953 0.051954 -0.027354
v 0.019953 0.051954 -0.027354
v 0.019953 0.051954 -0.027354
v 0.019953 0.051954 -0.027354
v 0.023935 0.069372 -0.043022
v 0.023935 0.069372 -0.043022
v 0.023935 0.069372 -0.043022
v 0.023935 0.069372 -0.043022
v 0.023935 0.069372 -0.043022
v 0.023935 0.069372 -0.043022
v 0.023406 0.070644 -0.041360
v 0.023406 0.070644 -0.041360
v 0.023406 0.070644 -0.041360
v 0.023406 0.070644 -0.041360
v 0.023406 0.070644 -0.041360
v 0.025840 0.088085 -0.056624
v 0.025840 0.088085 -0.056624
v 0.025840 0.088085 -0.056624
v 0.025840 0.088085 -0.056624
v 0.025803 0.088174 -0.056509
v 0.025803 0.088174 -0.056509
v 0.025803 0.088174 -0.056509
v 0.025803 0.088174 -0.056509
v 0.025803 0.088174 -0.056509
v 0.025803 0.088174 -0.056509
v 0.015821 -0.022036 -0.004525
v 0.015821 -0.022036 -0.004525
v 0.015821 -0.022036 -0.004525
v 0.015821 -0.022036 -0.004525
v 0.015821 -0.022036 -0.004525
v 0.015821 -0.022036 -0.004525
v 0.014693 -0.022314 -0.000637
v 0.014693 -0.022314 -0.000637
v 0.014693 -0.022314 -0.000637
v 0.014693 -0.022314 -0.000637
v 0.014693 -0.022314 -0.000637
v 0.014693 -0.022314 -0.000637
v 0.016922 -0.050244 -0.004974
v 0.016922 -0.050244 -0.004974
v 0.016922 -0.050244 -0.004974
v 0.016922 -0.050244 -0.004974
v 0.014826 -0.049731 0.002131
v 0.014826 -0.049731 0.002131
v 0.014826 -0.049731 0.002131
v 0.014826 -0.049731 0.002131
v -0.001125 0.009450 -0.001575
v -0.001125 0.009450 -0.001575
v -0.001125 0.009450 -0.001575
v -0.001125 0.009450 -0.001575
v -0.001125 0.009450 -0.001575
v -0.001125 0.009450 -0.001575
v 0.001739 0.012261 0.001678
v 0.001739 0.012261 0.001678
v 0.001739 0.012261 0.001678
v 0.001739 0.012261 0.001678
v 0.001739 0.012261 0.001678
v -0.009689 0.031224 -0.013032
v -0.009689 0.031224 -0.013032
v -0.009689 0.031224 -0.013032
v -0.009689 0.031224 -0.013032
v -0.007745 0.035539 -0.010962
v -0.007745 0.035539 -0.010962
v -0.007745 0.035539 -0.010962
v -0.007745 0.035539 -0.010962
v -0.007745 0.035539 -0.010962
v -0.007745 0.035539 -0.010962
v -0.019257 0.047629 -0.025379
v -0.019257 0.047629 -0.025379
v -0.019257 0.047629 -0.025379
v -0.019257 0.047629 -0.025379
v -0.019257 0.047629 -0.025379
v -0.019257 0.047629 -0.025379
v -0.019257 0.047629 -0.025379
v -0.017469 0.051598 -0.023475
v -0.017469 0.051598 -0.023475
v -0.017469 0.051598 -0.023475
v -0.017469 0.051598 -0.023475
v -0.017469 0.051598 -0.023475
v -0.017469 0.051598 -0.023475
v -0.035948 0.069066 -0.046507
v -0.035948 0.069066 -0.046507
v -0.035948 0.069066 -0.046507
v -0.035948 0.069066 -0.046507
v -0.035948 0.069066 -0.046507
v -0.035948 0.069066 -0.046507
v -0.035948 0.069066 -0.046507
v -0.034682 0.071877 -0.045158
v -0.034682 0.071877 -0.045158
v -0.034682 0.071877 -0.045158
v -0.034682 0.071877 -0.045158
v -0.055625 0.088027 -0.072677
v -0.055625 0.088027 -0.072677
v -0.055625 0.088027 -0.072677
v -0.055497 0.088313 -0.072539
v -0.055497 0.088313 -0.072539
v -0.055497 0.088313 -0.072539
v -0.055497 0.088313 -0.072539
v -0.055497 0.088313 -0.072539
v -0.055497 0.088313 -0.072539
v 0.003119 -0.010988 0.004656
v 0.003119 -0.010988 0.004656
v 0.003119 -0.010988 0.004656
v 0.003119 -0.010988 0.004656
v 0.003119 -0.010988 0.004656
v 0.003119 -0.010988 0.004656
v 0.003119 -0.010988 0.004656
v 0.006276 -0.009165 0.008316
v 0.006276 -0.009165 0.008316
v 0.006276 -0.009165 0.008316
v 0.006276 -0.009165 0.008316
v 0.006276 -0.009165 0.008316
v 0.006276 -0.009165 0.008316
v 0.002342 -0.051077 0.006026
v 0.002342 -0.051077 0.006026
v 0.002342 -0.051077 0.006026
v 0.008458 -0.050764 0.013300
v 0.008458 -0.050764 0.013300
v 0.008458 -0.050764 0.013300
v 0.008458 -0.050764 0.013300
v 0.008458 -0.050764 0.013300
v 0.008458 -0.050764 0.013300
v 0.004833 0.011310 0.022886
v 0.004833 0.011310 0.022886
v 0.004833 0.011310 0.022886
v 0.004833 0.011310 0.022886
v 0.004833 0.011310 0.022886
v 0.005561 0.013521 0.018273
v 0.005561 0.013521 0.018273
v 0.005561 0.013521 0.018273
v 0.005561 0.013521 0.018273
v 0.005561 0.013521 0.018273
v 0.005561 0.013521 0.018273
v 0.002366 0.034800 0.033878
v 0.002366 0.034800 0.033878
v 0.002366 0.034800 0.033878
v 0.002366 0.034800 0.033878
v 0.002366 0.034800 0.033878
v 0.002366 0.034800 0.033878
v 0.002837 0.038701 0.030524
v 0.002837 0.038701 0.030524
v 0.002837 0.038701 0.030524
v 0.002837 0.038701 0.030524
v 0.002837 0.038701 0.030524
v 0.002837 0.038701 0.030524
v -0.000313 0.053144 0.046895
v -0.000313 0.053144 0.046895
v -0.000313 0.053144 0.046895
v -0.000313 0.053144 0.046895
v -0.000313 0.053144 0.046895
v -0.000313 0.053144 0.046895
v 0.000120 0.056732 0.043811
v 0.000120 0.056732 0.043811
v 0.000120 0.056732 0.043811
v 0.000120 0.056732 0.043811
v 0.000120 0.056732 0.043811
v 0.000120 0.056732 0.043811
v -0.004919 0.077983 0.070269
v -0.004919 0.077983 0.070269
v -0.004919 0.077983 0.070269
v -0.004919 0.077983 0.070269
v -0.004919 0.077983 0.070269
v -0.004919 0.077983 0.070269
v -0.004919 0.077983 0.070269
v -0.004612 0.080524 0.068085
v -0.004612 0.080524 0.068085
v -0.004612 0.080524 0.068085
v -0.004612 0.080524 0.068085
v -0.004612 0.080524 0.068085
v -0.004612 0.080524 0.068085
v -0.009470 0.101201 0.099796
v -0.009470 0.101201 0.099796
v -0.009470 0.101201 0.099796
v -0.009470 0.101201 0.099796
v -0.009470 0.101201 0.099796
v -0.009439 0.101460 0.099573
v -0.009439 0.101460 0.099573
v -0.009439 0.101460 0.099573
v -0.009439 0.101460 0.099573
v 0.006148 -0.009951 0.018332
v 0.006148 -0.009951 0.018332
v 0.006148 -0.009951 0.018332
v 0.006148 -0.009951 0.018332
v 0.006148 -0.009951 0.018332
v 0.006148 -0.009951 0.018332
v 0.006148 -0.009951 0.018332
v 0.006963 -0.008788 0.013365
v 0.006963 -0.008788 0.013365
v 0.006963 -0.008788 0.013365
v 0.006963 -0.008788 0.013365
v 0.006963 -0.008788 0.013365
v 0.006329 -0.049770 0.023232
v 0.006329 -0.049770 0.023232
v 0.006329 -0.049770 0.023232
v 0.006329 -0.049770 0.023232
v 0.007938 -0.050727 0.013909
v 0.007938 -0.050727 0.013909
v 0.007938 -0.050727 0.013909
v 0.007938 -0.050727 0.013909
v 0.007938 -0.050727 0.013909
v 0.008976 0.011416 0.023590
v 0.008976 0.011416 0.023590
v 0.008976 0.011416 0.023590
v 0.008976 0.011416 0.023590
v 0.008976 0.011416 0.023590
v 0.008976 0.011416 0.023590
v 0.008976 0.011416 0.023590
v 0.009704 0.013626 0.018978
v 0.009704 0.013626 0.018978
v 0.009704 0.013626 0.018978
v 0.009704 0.013626 0.018978
v 0.009704 0.013626 0.018978
v 0.009704 0.013626 0.018978
v 0.006510 0.034906 0.034583
v 0.006510 0.034906 0.034583
v 0.006510 0.034906 0.034583
v 0.006510 0.034906 0.034583
v 0.006510 0.034906 0.034583
v 0.006510 0.034906 0.034583
v 0.006981 0.038807 0.031229
v 0.006981 0.038807 0.031229
v 0.006981 0.038807 0.031229
v 0.006981 0.038807 0.031229
v 0.006981 0.038807 0.031229
v 0.006981 0.038807 0.031229
v 0.003830 0.053250 0.047600
v 0.003830 0.053250 0.047600
v 0.003830 0.053250 0.047600
v 0.003830 0.053250 0.047600
v 0.003830 0.053250 0.047600
v 0.003830 0.053250 0.047600
v 0.004263 0.056838 0.044515
v 0.004263 0.056838 0.044515
v 0.004263 0.056838 0.044515
v 0.004263 0.056838 0.044515
v 0.004263 0.056838 0.044515
v 0.004263 0.056838 0.044515
v -0.000775 0.078089 0.070974
v -0.000775 0.078089 0.070974
v -0.000775 0.078089 0.070974
v -0.000775 0.078089 0.070974
v -0.000775 0.078089 0.070974
v -0.000775 0.078089 0.070974
v -0.000775 0.078089 0.070974
v -0.000469 0.080630 0.068789
v -0.000469 0.080630 0.068789
v -0.000469 0.080630 0.068789
v -0.000469 0.080630 0.068789
v -0.007383 0.101254 0.100150
v -0.007383 0.101254 0.100150
v -0.007383 0.101254 0.100150
v -0.007352 0.101513 0.099928
v -0.007352 0.101513 0.099928
v -0.007352 0.101513 0.099928
v -0.007352 0.101513 0.099928
v -0.007352 0.101513 0.099928
v -0.007352 0.101513 0.099928
v 0.010292 -0.009846 0.019037
v 0.010292 -0.009846 0.019037
v 0.010292 -0.009846 0.019037
v 0.010292 -0.009846 0.019037
v 0.010292 -0.009846 0.019037
v 0.011106 -0.008683 0.014070
v 0.011106 -0.008683 0.014070
v 0.011106 -0.008683 0.014070
v 0.011106 -0.008683 0.014070
v 0.011106 -0.008683 0.014070
v 0.011106 -0.008683 0.014070
v 0.011106 -0.008683 0.014070
v 0.010473 -0.049665 0.023936
v 0.010473 -0.049665 0.023936
v 0.010473 -0.049665 0.023936
v 0.010473 -0.049665 0.023936
v 0.012082 -0.050621 0.014614
v 0.012082 -0.050621 0.014614
v 0.012082 -0.050621 0.014614
v 0.012082 -0.050621 0.014614
v 0.012082 -0.050621 0.014614
vn 0.9593 0.0330 0.2805
vn 0.9493 -0.0148 0.3139
vn 0.7656 -0.0368 -0.6422
vn 0.7509 -0.0216 -0.6600
vn -0.9593 -0.0330 -0.2805
vn -0.9659 -0.0807 -0.2462
vn -0.2513 0.5531 0.7943
vn 0.2798 -0.2473 -0.9277
vn -0.1399 -0.8072 0.5734
vn -0.2798 0.2470 0.9277
vn 0.2330 -0.6539 -0.7198
vn -0.2459 0.5862 0.7720
vn 0.2754 -0.3292 -0.9032
vn -0.2777 0.2920 0.9152
vn -0.2824 0.1261 0.9510
vn 0.2824 -0.1197 -0.9518
vn 0.2691 -0.4086 -0.8722
vn -0.0122 0.9971 -0.0756
vn -0.2691 0.4086 0.8722
vn -0.2798 -0.0262 0.9597
vn -0.2822 0.1571 0.9464
vn 0.2824 -0.0950 -0.9546
vn 0.2599 -0.4920 -0.8309
vn -0.2600 0.4913 0.8313
vn 0.2824 -0.1283 -0.9507
vn 0.2416 -0.6101 -0.7546
vn -0.7656 0.0368 0.6422
vn -0.7798 0.0519 0.6239
vn -0.0071 -0.9988 0.0488
vn -0.4226 -0.7815 -0.4590
vn 0.5479 0.5604 0.6211
vn -0.6430 -0.0137 -0.7658
vn -0.5217 0.5485 -0.6534
vn 0.6412 0.1243 0.7573
vn 0.3035 0.9010 0.3101
vn -0.3474 -0.8639 -0.3647
vn 0.4775 0.7014 0.5291
vn -0.4852 -0.6886 -0.5389
vn -0.6131 -0.3441 -0.7112
vn -0.5529 -0.5478 -0.6278
vn 0.6119 0.3494 0.7095
vn 0.4028 0.8059 0.4340
vn -0.9855 -0.0251 -0.1675
vn -0.9891 -0.0070 -0.1470
vn 0.9855 0.0251 0.1675
vn 0.9812 0.0432 0.1879
vn 0.0078 -0.9946 0.1034
vn -0.1039 -0.6917 0.7146
vn 0.1390 0.4454 -0.8845
vn -0.1693 0.1196 0.9783
vn -0.1428 0.6551 0.7419
vn 0.1678 -0.0089 -0.9858
vn 0.0713 0.8356 -0.5447
vn -0.0833 -0.7895 0.6080
vn 0.1191 0.6006 -0.7907
vn -0.1212 -0.5862 0.8011
vn -0.1583 -0.2161 0.9635
vn -0.1405 -0.4317 0.8910
vn 0.1579 0.2216 -0.9623
vn 0.0984 0.7202 -0.6867
vn 0.9494 -0.0148 0.3138
vn 0.7510 -0.0216 -0.6600
vn -0.9659 -0.0806 -0.2462
vn 0.3034 0.9010 0.3101
vn 0.0077 -0.9946 0.1034
vn -0.0832 -0.7895 0.6080
s 0
usemtl material_10
f 1//1 18//1 7//1
f 24//1 19//1 13//1
f 35//1 29//1 25//1
f 48//1 42//1 36//1
f 61//1 54//1 49//1
f 72//1 66//1 62//1
f 73//2 89//2 80//2
f 8//1 93//1 2//1
f 99//1 105//1 94//1
f 127//3 121//3 115//3
f 140//3 134//3 128//3
f 151//3 145//3 141//3
s 1
f 152//4 169//4 158//4
s 0
f 178//3 116//3 122//3
f 189//3 173//3 179//3
f 193//5 210//5 205//5
f 211//5 218//5 206//5
f 225//5 231//5 219//5
f 236//5 242//5 232//5
f 248//5 253//5 243//5
f 260//5 266//5 254//5
f 267//6 281//6 277//6
f 199//5 287//5 293//5
f 294//5 299//5 303//5
f 74//7 255//7 268//7
f 30//8 212//8 20//8
f 85//9 282//9 90//9
f 14//10 220//10 26//10
f 81//11 283//11 272//11
f 75//12 278//12 86//12
f 43//13 226//13 31//13
f 37//14 221//14 233//14
f 95//15 194//15 3//15
f 100//16 200//16 295//16
f 55//17 237//17 44//17
f 106//18 304//18 300//18
s 1
f 38//19 244//19 50//19
s 0
f 107//20 288//20 96//20
f 4//21 207//21 15//21
s 1
f 111//22 296//22 305//22
s 0
f 56//23 261//23 249//23
f 51//24 256//24 63//24
f 9//25 213//25 201//25
f 67//26 273//26 262//26
s 1
f 313//27 318//27 307//27
s 0
f 322//27 328//27 319//27
f 335//27 341//27 329//27
f 342//28 355//28 352//28
f 308//27 368//27 314//27
f 361//27 377//27 369//27
f 184//29 378//29 374//29
f 153//30 330//30 343//30
f 135//31 315//31 123//31
f 185//32 362//32 174//32
f 164//33 356//33 170//33
f 180//34 379//34 190//34
f 159//35 357//35 348//35
f 165//36 344//36 353//36
f 146//37 323//37 136//37
f 129//38 331//38 142//38
f 117//39 363//39 309//39
f 130//40 310//40 320//40
f 124//41 370//41 181//41
f 160//42 336//42 147//42
f 394//43 388//43 383//43
f 406//43 400//43 395//43
f 418//43 412//43 407//43
f 419//44 436//44 425//44
f 447//43 384//43 389//43
f 456//43 440//43 448//43
f 468//45 474//45 461//45
f 480//45 486//45 475//45
f 492//45 498//45 487//45
f 499//46 512//46 509//46
f 462//45 523//45 469//45
f 518//45 534//45 524//45
f 452//47 535//47 530//47
f 420//48 488//48 500//48
f 401//49 470//49 390//49
f 441//50 531//50 519//50
f 431//51 513//51 437//51
f 457//52 525//52 536//52
f 426//53 514//53 505//53
s 1
f 432//54 501//54 510//54
s 0
f 413//55 481//55 402//55
f 408//56 476//56 489//56
f 442//57 463//57 385//57
f 396//58 464//58 477//58
f 391//59 526//59 449//59
f 427//60 493//60 414//60
f 5//1 16//1 21//1
f 27//1 32//1 22//1
f 39//1 45//1 33//1
f 52//1 57//1 46//1
f 64//1 68//1 58//1
f 76//1 82//1 69//1
f 77//61 87//61 91//61
f 10//1 101//1 97//1
f 102//1 112//1 108//1
f 131//3 137//3 125//3
s 1
f 143//3 148//3 138//3
s 0
f 154//3 161//3 149//3
f 155//62 166//62 171//62
f 182//3 175//3 118//3
f 191//3 186//3 176//3
f 195//5 202//5 214//5
f 215//5 227//5 222//5
f 228//5 238//5 234//5
f 239//5 250//5 245//5
f 251//5 263//5 257//5
f 264//5 274//5 269//5
f 270//63 275//63 284//63
f 203//5 196//5 289//5
f 297//5 290//5 301//5
f 78//7 65//7 258//7
f 34//8 229//8 216//8
f 88//9 279//9 285//9
f 17//10 208//10 223//10
f 83//11 92//11 286//11
f 79//12 271//12 280//12
f 47//13 240//13 230//13
f 40//14 28//14 224//14
f 98//15 291//15 197//15
f 103//16 11//16 204//16
f 59//17 252//17 241//17
f 109//18 113//18 306//18
f 41//19 235//19 246//19
f 110//20 302//20 292//20
f 6//21 198//21 209//21
f 114//22 104//22 298//22
f 60//23 70//23 265//23
f 53//24 247//24 259//24
f 12//25 23//25 217//25
f 71//26 84//26 276//26
f 313//27 324//27 318//27
f 325//27 337//27 332//27
f 338//27 349//27 345//27
f 346//28 350//28 358//28
f 311//27 364//27 371//27
f 365//27 375//27 380//27
f 187//29 192//29 381//29
f 156//30 144//30 333//30
f 139//31 326//31 316//31
f 188//32 376//32 366//32
f 167//33 354//33 359//33
f 183//34 372//34 382//34
f 162//64 172//64 360//64
f 168//36 157//36 347//36
f 150//37 339//37 327//37
f 132//38 321//38 334//38
f 119//39 177//39 367//39
f 133//40 120//40 312//40
f 126//41 317//41 373//41
f 163//42 351//42 340//42
f 397//43 403//43 392//43
f 409//43 415//43 404//43
f 421//43 428//43 416//43
f 422//44 433//44 438//44
f 450//43 443//43 386//43
f 458//43 453//43 444//43
f 471//45 482//45 478//45
f 483//45 494//45 490//45
f 495//45 506//45 502//45
f 503//46 507//46 515//46
f 465//45 520//45 527//45
f 521//45 532//45 537//45
f 454//65 459//65 538//65
f 423//48 410//48 491//48
f 405//49 484//49 472//49
f 445//50 455//50 533//50
f 434//51 511//51 516//51
f 460//52 451//52 528//52
f 429//53 439//53 517//53
f 435//66 424//66 504//66
f 417//55 496//55 485//55
f 411//56 398//56 479//56
s 1
f 446//57 522//57 466//57
s 0
f 399//58 387//58 467//58
s 1
f 393//59 473//59 529//59
s 0
f 430//60 508//60 497//60
