# Blender 3.5.1
# www.blender.org
mtllib Palm.mtl
o MY_PALM
v 32.894276 -0.000003 -41.524132
v -14.790805 -0.000003 -41.524139
v -38.633347 -0.000000 -0.227655
v -14.790811 0.000003 41.068836
v 32.894268 0.000003 41.068840
v 56.736820 -0.000000 -0.227649
v 32.194027 155.006760 -25.760738
v 36.768387 294.081848 -21.477692
v 33.717674 446.237976 -19.682726
v 14.898691 609.080261 -20.103708
v -20.734097 779.776611 -21.000593
v -75.389328 956.656921 -17.875147
v 2.209097 156.355392 -25.758518
v 11.161473 294.837708 -21.477106
v 11.366873 443.988159 -19.681089
v -4.046816 605.561218 -20.091721
v -36.508499 776.813721 -20.977135
v -85.224205 953.283752 -17.853350
v -12.785308 156.991516 0.269284
v -1.643657 295.182800 0.721097
v 0.187147 442.917511 -0.226047
v -13.544045 603.944031 -3.376307
v -44.414112 775.462524 -6.999545
v -90.142700 951.638794 -8.745505
v 2.205229 156.278976 26.294857
v 11.158127 294.772003 22.918711
v 11.358225 444.096680 19.227358
v -4.095780 605.845947 13.327120
v -36.545380 777.074341 6.954590
v -85.226418 953.367065 0.340537
v 32.190170 154.930328 26.292631
v 36.765038 294.016144 22.918121
v 33.709030 446.346466 19.225721
v 14.849724 609.364990 13.315131
v -20.770992 780.037231 6.931136
v -75.391563 956.740234 0.318739
v 47.184555 154.294235 0.264827
v 49.570164 293.671021 0.719918
v 44.888752 447.417084 -0.229320
v 24.346966 610.982117 -3.400287
v -12.865339 781.388306 -7.046457
v -70.473030 958.385193 -8.789105
v -77.283585 962.179626 -17.900652
v -79.177841 967.702393 -17.926151
v -80.166237 975.545898 -16.267860
v -82.911118 982.376709 -15.469492
v -87.118454 958.806519 -17.878855
v -89.012695 964.329224 -17.904352
v -89.728302 972.346436 -18.341391
v -90.961349 979.500610 -17.852842
v -92.036942 957.161560 -8.771010
v -93.931198 962.684326 -8.796510
v -96.493073 970.962341 -10.595183
v -97.208694 978.100037 -11.604617
v -87.120667 958.889771 0.315037
v -89.014915 964.412537 0.289535
v -93.695824 972.777588 -0.775458
v -95.405846 979.575500 -2.973055
v -77.285805 962.262878 0.293237
v -79.180054 967.785583 0.267737
v -84.133759 975.976990 1.298074
v -87.355606 982.451538 -0.589701
v -72.367279 963.907898 -8.814607
v -74.261528 969.430603 -8.840109
v -77.368965 977.361206 -6.448136
v -81.108238 983.852173 -6.837925
v -66.156761 963.867554 -49.984470
v -94.415009 953.390869 -50.505188
v -120.446510 944.653931 -11.984808
v -107.838791 949.778076 20.704885
v -60.419353 965.757385 27.852869
v -42.574085 970.937073 -2.863470
v -43.407207 970.848755 -115.730324
v -110.392242 952.262573 -100.363686
v -166.177612 914.909241 1.026145
v -144.722672 931.258728 62.295937
v -3.615810 967.189697 86.665352
v 34.362808 975.559509 18.484543
v -38.592163 949.886780 -179.274765
v -90.172234 922.259033 -174.945465
v -200.346924 872.351013 21.969110
v -180.664459 881.973328 80.739998
v 52.877201 948.595703 103.209183
v 82.719933 956.554626 55.526760
v -46.939999 877.776001 -219.836075
v -196.692688 788.416626 77.115868
v 109.032402 899.692078 91.706703
v -160.995346 932.905334 -82.645805
v -191.623291 922.662109 -25.930506
v -114.998802 964.068115 68.456772
v -56.451881 984.560120 69.161423
v -0.917348 996.588745 -31.898190
v -40.099911 985.826599 -82.919876
v -201.478760 891.870056 -116.645950
v -234.940674 871.448059 -51.396828
v -114.137459 944.986877 143.251282
v -45.161076 968.644165 143.098373
v 59.923786 1002.275146 -82.062469
v 9.086508 988.312012 -131.912628
v -242.427444 794.180054 -110.079018
v -54.527504 892.362732 193.662125
v 83.042114 961.031799 -156.070923
v -82.686211 990.565491 -64.024010
v -120.546509 977.664795 -56.409103
v -139.929077 971.259338 6.970590
v -114.793434 980.075317 38.163193
v -53.018974 1001.147339 23.940784
v -40.340813 1005.367310 -14.867390
v -92.641914 999.516968 -127.609222
v -138.655441 983.838013 -118.354416
v -213.129425 954.876587 37.569275
v -152.969940 979.927673 93.752159
v -1.730662 1031.518188 49.821815
v 13.677717 1036.647095 2.656255
v -109.616348 979.631531 -185.523544
v -138.126663 969.916748 -179.789230
v 60.682320 1039.172363 59.062153
v 70.229477 1042.350220 29.838013
v -129.798065 964.838074 -215.893936
v -222.923157 918.306885 117.048058
v 99.290421 1044.657593 53.322758
v -68.062141 1029.591919 -41.543705
v -99.445404 1017.902527 -56.285591
v -116.668327 997.351501 -71.049400
v -149.192719 991.090210 -36.577065
v -141.184906 1009.355957 -24.998785
v -139.156281 1014.775085 9.858052
v -133.503723 996.376343 37.521946
v -86.215874 1012.504944 50.887596
v -102.337914 1034.544800 27.654596
v -70.765518 1041.056152 4.328641
v -44.205055 1024.878296 -2.965623
v -48.789948 1021.296021 -50.383152
v -155.444061 999.195374 -131.220673
v -202.740341 998.391968 -73.336830
v -172.037384 1002.742920 117.991463
v -96.862488 1028.383057 139.239227
v 19.143351 1062.725098 2.305709
v -5.614335 1053.333130 -72.499695
v -198.389038 979.969116 -165.449753
v -238.406479 981.073486 -125.885460
v 71.803078 1059.334961 -19.609941
v 59.994946 1053.188232 -87.127678
v -250.348038 944.307068 -179.708191
v -151.998978 980.517212 209.238068
v 120.965019 1030.639526 -58.315922
v -25.497149 1063.312256 -110.328552
v -89.909462 1041.451660 -137.897705
v -206.988052 1022.635254 -39.635929
v -203.194260 1032.769653 25.550703
v -96.785828 1077.837524 79.497414
v -33.654591 1090.014526 35.057594
v -30.848166 1031.984863 -178.027512
v -282.967834 1008.698242 11.205534
v -24.955637 1086.885254 134.588745
vn 0.5736 0.7564 0.3144
vn 0.1307 0.9215 -0.3658
vn -0.1792 0.7458 0.6417
vn -0.7874 0.5166 0.3362
vn -0.8224 0.4323 -0.3700
vn -0.2016 0.3838 -0.9011
vn -0.6461 0.1457 -0.7492
vn -0.3237 0.0902 -0.9419
vn 0.5004 0.0897 -0.8612
vn 0.5975 0.0367 -0.8010
vn 0.3980 0.0192 -0.9172
vn -0.5691 0.0349 -0.8215
vn 0.4263 0.0269 -0.9042
vn -0.4998 -0.0193 -0.8659
vn 0.4949 0.0690 -0.8662
vn -0.5638 -0.0830 -0.8217
vn 0.4735 0.1616 -0.8658
vn 0.5496 0.1488 -0.8221
vn -0.3226 -0.0724 -0.9438
vn -0.4886 -0.1164 -0.8647
vn -0.9867 0.1625 0.0001
vn -0.9926 0.1218 0.0001
vn -0.9927 0.0400 0.1141
vn -0.9956 -0.0438 -0.0825
vn -0.9914 -0.1311 -0.0003
vn -0.9794 -0.2020 0.0007
vn -0.9679 -0.2514 0.0012
vn -0.6465 0.1410 0.7498
vn -0.3238 0.0842 0.9424
vn -0.4992 0.0429 0.8654
vn -0.5020 0.0115 0.8648
vn -0.6524 -0.0649 0.7551
vn -0.4923 -0.0891 0.8659
vn -0.3242 -0.0542 0.9444
vn 0.3282 0.0909 0.9402
vn 0.6555 0.0359 0.7543
vn 0.3980 0.0197 0.9172
vn 0.4978 0.0503 0.8659
vn 0.4178 0.0944 0.9036
vn 0.4806 0.1484 0.8643
vn 0.6210 0.2201 0.7523
vn 0.9803 0.0599 0.1879
vn 0.9930 0.0303 -0.1144
vn 1.0000 0.0067 0.0001
vn 0.9956 0.0932 0.0001
vn 0.9829 0.1839 -0.0004
vn 0.9561 0.2707 0.1122
vn 0.9344 0.3023 -0.1882
vn -0.6217 -0.2167 -0.7527
vn -0.4750 -0.1669 -0.8640
vn 0.3104 0.1021 -0.9451
vn 0.4745 0.1588 -0.8658
vn -0.4442 -0.1528 -0.8828
vn 0.5011 0.1774 -0.8470
vn -0.3452 -0.0141 -0.9384
vn 0.5808 0.2903 -0.7605
vn -0.9459 -0.3244 0.0015
vn -0.9428 -0.3230 0.0829
vn -0.9398 -0.3398 -0.0350
vn -0.9616 -0.1981 -0.1897
vn -0.6214 -0.2096 0.7550
vn -0.3104 -0.1021 0.9451
vn -0.4941 -0.1950 0.8473
vn -0.6592 -0.0710 0.7486
vn 0.3112 0.1111 0.9438
vn 0.6216 0.2167 0.7527
vn 0.4544 0.1340 0.8807
vn 0.2778 0.2417 0.9297
vn 0.9459 0.3244 -0.0015
vn 0.9398 0.3218 -0.1151
vn 0.9480 0.3166 0.0320
vn 0.8933 0.4169 0.1682
vn -0.3205 0.9447 0.0703
vn -0.3393 0.9356 0.0979
vn -0.3351 0.9367 0.1016
vn -0.3228 0.9418 0.0940
vn -0.4033 0.9147 -0.0254
vn -0.2888 0.9566 -0.0382
vn -0.2166 0.9738 -0.0686
vn -0.2161 0.9740 -0.0683
vn -0.4007 0.9148 -0.0512
vn -0.4015 0.9135 -0.0657
vn -0.2557 0.9667 0.0103
vn -0.2666 0.9638 0.0076
vn -0.3635 0.8981 -0.2477
vn -0.3239 0.9394 -0.1122
vn -0.6991 0.7111 0.0742
vn -0.5993 0.7997 0.0355
vn 0.0601 0.9862 0.1545
vn 0.0548 0.9828 0.1763
vn -0.3922 0.7486 -0.5346
vn -0.4204 0.6931 -0.5855
vn -0.8507 0.4913 0.1868
vn -0.8777 0.4232 0.2247
vn 0.3631 0.8627 0.3519
vn 0.4410 0.7987 0.4093
vn -0.3309 0.4914 -0.8056
vn -0.9446 0.1505 0.2917
vn 0.6266 0.6036 0.4929
vn -0.3265 0.9452 -0.0056
vn -0.4792 0.8719 -0.1013
vn -0.3182 0.9265 -0.2006
vn -0.3274 0.9446 0.0208
vn -0.3196 0.9259 -0.2013
vn -0.3305 0.9435 0.0225
vn -0.4036 0.9139 0.0446
vn -0.2817 0.9594 -0.0105
vn -0.3979 0.9142 0.0764
vn -0.2723 0.9622 0.0062
vn -0.8131 0.5243 -0.2529
vn -0.7155 0.6815 -0.1536
vn -0.8131 0.5242 -0.2529
vn -0.6137 0.7655 -0.1932
vn -0.2685 0.7863 0.5565
vn -0.2912 0.8417 0.4546
vn 0.0056 0.9614 -0.2750
vn -0.0461 0.9754 -0.2154
vn -0.8749 0.3438 -0.3411
vn -0.1898 0.5585 0.8075
vn 0.1835 0.8819 -0.4342
vn -0.2900 0.8484 0.4429
vn -0.2684 0.9090 0.3188
vn -0.2457 0.8567 0.4536
vn -0.2460 0.9134 0.3242
vn 0.0988 0.9664 -0.2373
vn -0.0699 0.9749 -0.2112
vn 0.0909 0.9542 -0.2851
vn -0.0525 0.9713 -0.2322
vn -0.6749 0.6984 -0.2383
vn -0.6380 0.7536 -0.1582
vn -0.7037 0.6809 -0.2028
vn -0.5741 0.8128 -0.0992
vn -0.3255 0.9454 -0.0165
vn -0.4424 0.8937 0.0752
vn -0.3593 0.9332 0.0067
vn -0.2532 0.9671 0.0224
vn -0.3732 0.9275 -0.0211
vn -0.3529 0.9119 -0.2097
vn -0.1309 0.9893 0.0648
vn -0.5802 0.7647 0.2803
vn -0.4162 0.5956 0.6870
vn -0.4660 0.5652 0.6807
vn -0.4697 0.6968 0.5421
vn -0.4620 0.8042 0.3740
vn 0.1899 0.9243 0.3310
vn 0.1876 0.9227 0.3366
vn 0.1283 0.9490 0.2880
vn 0.0688 0.9802 0.1858
vn 0.5607 0.7888 -0.2519
vn 0.5829 0.7864 -0.2046
vn 0.4144 0.8906 -0.1873
vn 0.4258 0.8900 -0.1631
vn -0.1278 0.7795 -0.6132
vn -0.1698 0.8605 -0.4803
vn -0.1164 0.7892 -0.6030
vn -0.2163 0.9154 -0.3394
vn -0.7157 0.1624 -0.6792
vn -0.6365 0.3801 -0.6711
vn -0.6640 0.2102 -0.7176
vn -0.5577 0.5622 -0.6107
vn -0.7803 0.6160 0.1084
vn -0.8014 0.5937 0.0724
vn -0.7407 0.6701 0.0478
vn -0.6552 0.7547 0.0328
vn -0.1456 0.9803 -0.1332
vn -0.0685 0.9975 0.0140
vn -0.3349 0.9409 0.0495
vn -0.3134 0.9489 -0.0363
vn -0.1781 0.9827 -0.0512
vn -0.3941 0.9189 -0.0195
vn -0.2916 0.9108 -0.2923
vn -0.3250 0.8773 -0.3532
vn 0.1382 0.9826 -0.1237
vn 0.2194 0.9674 -0.1265
vn -0.4198 0.7901 -0.4466
vn -0.3824 0.8749 0.2971
vn 0.4056 0.9012 -0.1530
vn -0.2767 0.9546 -0.1104
vn -0.3327 0.9430 -0.0013
vn -0.0178 0.9881 -0.1526
vn 0.0670 0.9853 -0.1571
vn -0.3508 0.9022 -0.2511
vn -0.4169 0.8395 -0.3486
vn -0.1322 0.9035 -0.4077
vn -0.2643 0.9552 -0.1331
vn -0.1587 0.9863 0.0449
vt 0.506738 0.007642
vt 0.600978 0.007642
vt 0.006225 0.007642
vt 0.102254 0.007642
vt 0.202569 0.007642
vt 0.295303 0.007642
vt 0.404247 0.007642
vt 0.506738 0.127772
vt 0.506738 0.266632
vt 0.506738 0.415836
vt 0.506738 0.574034
vt 0.601645 0.574034
vt 0.506738 0.754267
vt 0.601166 0.754568
vt 0.505887 0.934593
vt 0.794432 0.101454
vt 0.600978 0.127772
vt 0.006225 0.127772
vt 0.600978 0.266632
vt 0.006225 0.266632
vt 0.600978 0.415836
vt 0.006225 0.415836
vt 0.601645 0.574034
vt 0.005751 0.574034
vt 0.506830 0.573722
vt 0.600978 0.754267
vt 0.006225 0.754267
vt 0.506738 0.754556
vt 0.601163 0.934715
vt 0.601379 0.934529
vt 0.006225 0.934627
vt 0.831304 0.102144
vt 0.102254 0.127772
vt 0.102254 0.266632
vt 0.102254 0.415836
vt 0.102254 0.574034
vt 0.102254 0.754267
vt 0.102254 0.934627
vt 0.796165 0.100659
vt 0.202569 0.127772
vt 0.202569 0.266632
vt 0.202569 0.415836
vt 0.202569 0.574034
vt 0.202569 0.754267
vt 0.202569 0.934627
vt 0.830857 0.102015
vt 0.295303 0.127772
vt 0.295303 0.266632
vt 0.295303 0.415836
vt 0.295303 0.574034
vt 0.295303 0.754267
vt 0.295303 0.934627
vt 0.794432 0.101454
vt 0.404247 0.127772
vt 0.404247 0.266632
vt 0.404247 0.415836
vt 0.404247 0.574034
vt 0.404247 0.754267
vt 0.404247 0.934627
vt 0.831304 0.102143
vt 0.506738 0.978262
vt 0.852140 0.253145
vt 0.600978 0.983742
vt 0.506738 0.983742
vt 0.794432 0.101454
vt 0.506738 0.983742
vt 0.506738 0.988283
vt 0.830857 0.102015
vt 0.717138 0.112975
vt 0.506738 0.993717
vt 0.774494 0.255069
vt 0.600978 0.978262
vt 0.006225 0.978262
vt 0.774493 0.255070
vt 0.600978 0.983742
vt 0.600978 0.988283
vt 0.006225 0.983742
vt 0.831304 0.102143
vt 0.506738 0.988283
vt 0.600978 0.988283
vt 0.006225 0.988283
vt 0.794432 0.101454
vt 0.683004 0.123081
vt 0.600978 0.993717
vt 0.006225 0.993717
vt 0.852140 0.253145
vt 0.102254 0.978262
vt 0.852139 0.253146
vt 0.102254 0.983742
vt 0.774494 0.255070
vt 0.102254 0.988283
vt 0.831304 0.102144
vt 0.656515 0.096588
vt 0.102254 0.993717
vt 0.775997 0.254711
vt 0.202569 0.978262
vt 0.774495 0.255070
vt 0.202569 0.983742
vt 0.852140 0.253145
vt 0.202569 0.988283
vt 0.775997 0.254711
vt 0.664159 0.059989
vt 0.202569 0.993717
vt 0.853203 0.254660
vt 0.295303 0.978262
vt 0.852141 0.253145
vt 0.295303 0.983742
vt 0.796164 0.100659
vt 0.295303 0.988283
vt 0.853203 0.254660
vt 0.698293 0.049883
vt 0.295303 0.993717
vt 0.774494 0.255070
vt 0.404247 0.978262
vt 0.774493 0.255070
vt 0.404247 0.983742
vt 0.830856 0.102015
vt 0.404247 0.988283
vt 0.796165 0.100659
vt 0.724782 0.076376
vt 0.404247 0.993717
vt 0.852140 0.253146
vt 0.733757 0.254687
vt 0.895579 0.253499
vt 0.733065 0.253461
vt 0.894342 0.254391
vt 0.733757 0.254687
vt 0.895579 0.253499
vt 0.688065 0.499165
vt 0.938584 0.492976
vt 0.687406 0.498352
vt 0.939413 0.491371
vt 0.688065 0.499165
vt 0.938583 0.492976
vt 0.720789 0.704428
vt 0.919865 0.702881
vt 0.722047 0.705428
vt 0.916921 0.702744
vt 0.720789 0.704428
vt 0.919865 0.702881
vt 0.811210 0.919954
vt 0.811938 0.921919
vt 0.811210 0.919954
vt 0.687406 0.498353
vt 0.939413 0.491371
vt 0.687406 0.498352
vt 0.939412 0.491371
vt 0.687406 0.498353
vt 0.939413 0.491371
vt 0.722047 0.705427
vt 0.916921 0.702743
vt 0.722047 0.705428
vt 0.916921 0.702745
vt 0.722047 0.705427
vt 0.916921 0.702744
vt 0.811938 0.921919
vt 0.811938 0.921919
vt 0.811938 0.921919
vt 0.733757 0.254687
vt 0.895579 0.253499
vt 0.687407 0.498353
vt 0.939412 0.491371
vt 0.733065 0.253461
vt 0.894341 0.254391
vt 0.688065 0.499165
vt 0.938584 0.492976
vt 0.722047 0.705428
vt 0.916920 0.702744
vt 0.687406 0.498353
vt 0.939412 0.491371
vt 0.720789 0.704428
vt 0.919865 0.702881
vt 0.722047 0.705427
vt 0.916921 0.702744
vt 0.811210 0.919954
vt 0.811938 0.921920
vt 0.811938 0.921919
vt 0.687406 0.498353
vt 0.939412 0.491371
vt 0.733757 0.254687
vt 0.895579 0.253499
vt 0.688065 0.499165
vt 0.938584 0.492976
vt 0.688065 0.499165
vt 0.938584 0.492976
vt 0.687407 0.498353
vt 0.939412 0.491371
vt 0.733065 0.253460
vt 0.894342 0.254391
vt 0.688065 0.499165
vt 0.938584 0.492976
vt 0.720789 0.704428
vt 0.919865 0.702881
vt 0.687406 0.498351
vt 0.939413 0.491369
vt 0.720789 0.704428
vt 0.919865 0.702881
vt 0.722047 0.705427
vt 0.916921 0.702743
vt 0.811210 0.919954
vt 0.811210 0.919954
vt 0.811938 0.921919
vt 0.722047 0.705428
vt 0.916920 0.702744
vt 0.720789 0.704428
vt 0.919865 0.702881
vt 0.722047 0.705428
vt 0.916920 0.702744
vt 0.811938 0.921919
vt 0.811210 0.919954
vt 0.811938 0.921920
s 1
usemtl lambert2SG
f 66/120/1 46/69/2 62/111/3
f 62/111/3 46/69/2 58/102/4
f 58/102/4 46/69/2 54/93/5
f 46/69/2 50/83/6 54/93/5
f 2/2/7 13/17/8 1/1/9
f 1/1/9 13/17/8 7/8/10
f 7/8/10 13/17/8 8/9/11
f 13/17/8 14/19/12 8/9/11
f 8/9/11 14/19/12 9/10/13
f 14/19/12 15/21/14 9/10/13
f 10/11/15 9/10/13 16/23/16
f 9/10/13 15/21/14 16/23/16
f 12/15/17 11/13/18 18/29/19
f 11/13/18 17/26/20 18/29/19
f 3/4/21 19/33/22 2/3/7
f 2/3/7 19/33/22 13/18/8
f 13/18/8 19/33/22 14/20/12
f 19/33/22 20/34/23 14/20/12
f 15/22/14 14/20/12 21/35/24
f 14/20/12 20/34/23 21/35/24
f 15/22/14 21/35/24 16/24/16
f 21/35/24 22/36/25 16/24/16
f 22/36/25 23/37/26 16/24/16
f 16/24/16 23/37/26 17/27/20
f 18/31/19 17/27/20 24/38/27
f 17/27/20 23/37/26 24/38/27
f 3/4/21 4/5/28 19/33/22
f 4/5/28 25/40/29 19/33/22
f 25/40/29 26/41/30 19/33/22
f 19/33/22 26/41/30 20/34/23
f 26/41/30 27/42/31 20/34/23
f 20/34/23 27/42/31 21/35/24
f 27/42/31 28/43/32 21/35/24
f 21/35/24 28/43/32 22/36/25
f 22/36/25 28/43/32 23/37/26
f 28/43/32 29/44/33 23/37/26
f 30/45/34 24/38/27 29/44/33
f 23/37/26 29/44/33 24/38/27
f 4/5/28 5/6/35 25/40/29
f 5/6/35 31/47/36 25/40/29
f 31/47/36 32/48/37 25/40/29
f 25/40/29 32/48/37 26/41/30
f 32/48/37 33/49/38 26/41/30
f 26/41/30 33/49/38 27/42/31
f 33/49/38 34/50/39 27/42/31
f 27/42/31 34/50/39 28/43/32
f 28/43/32 34/50/39 29/44/33
f 34/50/39 35/51/40 29/44/33
f 36/52/41 30/45/34 35/51/40
f 29/44/33 35/51/40 30/45/34
f 5/6/35 6/7/42 31/47/36
f 6/7/42 37/54/43 31/47/36
f 37/54/43 38/55/44 31/47/36
f 31/47/36 38/55/44 32/48/37
f 39/56/45 33/49/38 38/55/44
f 32/48/37 38/55/44 33/49/38
f 40/57/46 34/50/39 39/56/45
f 33/49/38 39/56/45 34/50/39
f 34/50/39 40/57/46 35/51/40
f 40/57/46 41/58/47 35/51/40
f 42/59/48 36/52/41 41/58/47
f 35/51/40 41/58/47 36/52/41
f 7/8/10 37/54/43 1/1/9
f 6/7/42 1/1/9 37/54/43
f 37/54/43 7/8/10 38/55/44
f 7/8/10 8/9/11 38/55/44
f 39/56/45 38/55/44 9/10/13
f 38/55/44 8/9/11 9/10/13
f 40/57/46 39/56/45 10/11/15
f 39/56/45 9/10/13 10/11/15
f 10/11/15 11/13/18 40/57/46
f 40/57/46 11/13/18 41/58/47
f 41/58/47 11/13/18 42/59/48
f 11/13/18 12/15/17 42/59/48
f 18/30/49 47/72/50 12/15/51
f 12/15/51 47/72/50 43/61/52
f 47/72/50 48/75/53 43/61/52
f 43/61/52 48/75/53 44/64/54
f 48/76/53 49/79/55 44/63/54
f 44/63/54 49/79/55 45/66/56
f 49/80/55 50/84/6 45/67/56
f 45/67/56 50/84/6 46/70/2
f 24/38/57 51/87/58 18/31/49
f 18/31/49 51/87/58 47/73/50
f 51/87/58 52/89/59 47/73/50
f 47/73/50 52/89/59 48/77/53
f 52/89/59 53/91/60 48/77/53
f 48/77/53 53/91/60 49/81/55
f 53/91/60 54/94/5 49/81/55
f 49/81/55 54/94/5 50/85/6
f 24/38/57 30/45/61 51/87/58
f 30/45/61 55/96/62 51/87/58
f 55/96/62 56/98/63 51/87/58
f 51/87/58 56/98/63 52/89/59
f 56/98/63 57/100/64 52/89/59
f 52/89/59 57/100/64 53/91/60
f 57/100/64 58/103/4 53/91/60
f 53/91/60 58/103/4 54/94/5
f 30/45/61 36/52/65 55/96/62
f 36/52/65 59/105/66 55/96/62
f 59/105/66 60/107/67 55/96/62
f 55/96/62 60/107/67 56/98/63
f 60/107/67 61/109/68 56/98/63
f 56/98/63 61/109/68 57/100/64
f 61/109/68 62/112/3 57/100/64
f 57/100/64 62/112/3 58/103/4
f 36/52/65 42/59/69 59/105/66
f 42/59/69 63/114/70 59/105/66
f 63/114/70 64/116/71 59/105/66
f 59/105/66 64/116/71 60/107/67
f 61/109/68 60/107/67 65/118/72
f 60/107/67 64/116/71 65/118/72
f 65/118/72 66/121/1 61/109/68
f 61/109/68 66/121/1 62/112/3
f 12/15/51 43/61/52 42/59/69
f 42/59/69 43/61/52 63/114/70
f 43/61/52 44/64/54 63/114/70
f 63/114/70 44/64/54 64/116/71
f 65/118/72 64/116/71 45/67/56
f 64/116/71 44/64/54 45/67/56
f 45/67/56 46/70/2 65/118/72
f 65/118/72 46/70/2 66/121/1
f 67/123/73 68/124/74 12/16/75
f 12/16/75 68/124/74 18/32/76
f 69/125/77 70/126/78 24/39/79
f 24/39/79 70/126/78 30/46/80
f 42/60/81 36/53/82 72/128/83
f 36/53/82 71/127/84 72/128/83
f 73/129/85 74/130/86 67/123/73
f 67/123/73 74/130/86 68/124/74
f 75/131/87 76/132/88 69/125/77
f 69/125/77 76/132/88 70/126/78
f 78/134/89 72/128/83 77/133/90
f 71/127/84 77/133/90 72/128/83
f 74/130/86 73/129/85 80/136/91
f 73/129/85 79/135/92 80/136/91
f 76/132/88 75/131/87 82/138/93
f 75/131/87 81/137/94 82/138/93
f 78/134/89 77/133/90 84/140/95
f 77/133/90 83/139/96 84/140/95
f 79/135/92 85/141/97 80/136/91
f 81/137/94 86/142/98 82/138/93
f 83/139/96 87/143/99 84/140/95
s 0
f 51/88/100 47/74/100 89/145/100
s 1
f 47/74/100 88/144/101 89/145/101
f 55/97/102 90/146/103 59/106/104
f 59/106/104 90/146/103 91/147/105
f 63/115/106 92/148/107 43/62/108
f 43/62/108 92/148/107 93/149/109
f 95/151/110 89/145/111 94/150/112
f 88/144/101 94/150/113 89/145/101
f 96/152/114 97/153/115 90/146/103
f 90/146/103 97/153/115 91/147/105
f 98/154/116 99/155/117 92/148/107
f 92/148/107 99/155/117 93/149/109
f 95/151/110 94/150/112 100/156/118
f 97/153/115 96/152/114 101/157/119
f 99/155/117 98/154/116 102/158/120
f 44/65/121 103/159/122 48/78/123
f 48/78/123 103/159/122 104/160/124
f 52/90/125 105/161/126 56/99/127
f 56/99/127 105/161/126 106/162/128
f 60/108/129 107/163/130 64/117/131
f 64/117/131 107/163/130 108/164/132
f 109/165/133 110/166/133 103/159/122
f 103/159/122 110/166/133 104/160/124
f 111/167/134 112/168/135 105/161/126
f 105/161/126 112/168/135 106/162/128
f 114/170/136 108/164/132 113/169/137
f 107/163/130 113/169/137 108/164/132
f 109/165/133 115/171/138 110/166/133
f 110/166/133 115/171/138 116/172/138
f 113/169/137 117/173/139 114/170/136
f 114/170/136 117/173/139 118/174/139
f 115/171/138 119/175/138 116/172/138
f 112/168/135 111/167/134 120/176/140
f 117/173/139 121/177/139 118/174/139
f 50/86/141 46/71/142 123/179/143
f 46/71/142 122/178/144 123/179/143
f 53/92/145 49/82/146 125/181/147
f 49/82/146 124/180/148 125/181/147
f 58/104/149 54/95/150 127/183/151
f 54/95/150 126/182/152 127/183/151
f 57/101/153 128/184/154 61/110/155
f 61/110/155 128/184/154 129/185/156
f 62/113/157 130/186/158 66/122/159
f 66/122/159 130/186/158 131/187/160
f 45/68/161 65/119/162 133/189/163
f 65/119/162 132/188/164 133/189/163
f 134/190/165 135/191/166 124/180/148
f 124/180/148 135/191/166 125/181/147
f 137/193/167 129/185/156 136/192/168
f 128/184/154 136/192/168 129/185/156
f 138/194/169 139/195/170 132/188/164
f 132/188/164 139/195/170 133/189/163
f 135/191/166 134/190/165 141/197/171
f 134/190/165 140/196/172 141/197/171
f 139/195/170 138/194/169 143/199/173
f 138/194/169 142/198/174 143/199/173
f 140/196/172 144/200/175 141/197/171
f 137/193/167 136/192/168 145/201/176
f 142/198/174 146/202/177 143/199/173
f 147/203/178 148/204/179 122/178/144
f 122/178/144 148/204/179 123/179/143
f 150/206/180 127/183/151 149/205/181
f 126/182/152 149/205/181 127/183/151
f 152/208/182 131/187/160 151/207/183
f 130/186/158 151/207/183 131/187/160
f 147/203/178 153/209/184 148/204/179
f 149/205/181 154/210/185 150/206/180
f 151/207/183 155/211/186 152/208/182
f 11/14/18 10/12/15 17/28/20
f 10/12/15 16/25/16 17/28/20
