# Blender 3.5.1
# www.blender.org
mtllib Ship.mtl
o Cube
v 0.155700 0.735591 1.834288
v 0.107633 1.567723 2.065012
v -0.232209 0.749778 -1.813654
v -0.294499 1.522277 -1.813654
v 0.738167 0.714289 1.834288
v 0.846890 1.540687 2.065012
v 1.126075 0.700102 -1.813654
v 1.244627 1.465987 -1.813654
v -0.463117 0.758223 -0.995190
v -0.463117 0.758223 0.024877
v -0.247107 0.750323 1.249763
v -0.405652 1.530367 1.249763
v -0.679808 1.540394 0.024877
v -0.679955 1.536374 -0.995190
v 1.140973 0.699557 1.249763
v 1.356983 0.691657 0.024877
v 1.356983 0.691657 -0.995190
v 1.630084 1.451890 -0.995190
v 1.630231 1.455910 0.024877
v 1.356074 1.465937 1.249763
v 0.439091 0.510526 -1.813654
v 0.475064 1.494132 -1.813654
v 0.441591 0.578876 1.961115
v 0.477261 1.554205 2.421771
v 0.476967 1.546168 2.112880
v 0.474770 1.486095 -1.606695
v 0.430691 0.280828 -0.995190
v 0.428477 0.220285 0.024877
v 0.430691 0.280828 1.249763
v 0.126609 1.001799 2.065012
v -0.312946 1.017874 -1.813654
v 1.226180 0.961585 -1.813654
v 0.786625 0.977660 2.065012
v 1.487831 0.952015 -0.995190
v 1.487831 0.952015 0.024877
v 1.243061 0.960967 1.249763
v -0.329827 1.018492 1.249763
v -0.574597 1.027443 0.024877
v -0.574597 1.027443 -0.995190
v 0.456617 0.989729 2.304371
v 0.456617 0.989729 -1.813654
v -0.466498 1.215680 -0.835517
v 1.393771 1.147646 -0.835517
v 1.396855 1.231970 0.039915
v 1.176077 1.240044 1.091122
v 0.463636 1.181663 -1.606695
v 0.466720 1.265987 2.112880
v 0.183504 1.276345 1.790777
v -0.196809 1.205817 -1.606695
v 1.230881 1.462467 1.091122
v 0.749937 1.255629 1.790777
v 1.466165 1.453862 0.039915
v 1.114468 0.907382 1.069926
v 1.319878 0.899870 0.042008
v 1.124082 1.157509 -1.606695
v 1.319878 0.899870 -0.814027
v -0.410902 0.963169 -0.814027
v -0.410902 0.963169 0.042008
v -0.205492 0.955656 1.069926
v 1.466018 1.449843 -0.835517
v -0.516478 1.522347 -0.835517
v -0.242637 1.291930 1.091122
v -0.463414 1.300004 0.039915
v 0.159749 1.557769 1.790777
v -0.185676 1.510249 -1.606695
v 0.794186 1.534566 1.790777
v 1.135216 1.461941 -1.606695
v -0.281047 1.517762 1.091122
v -0.516330 1.526367 0.039915
vn -0.9274 -0.0795 -0.3655
vn -0.0000 -0.0000 -1.0000
vn 0.8488 -0.1377 0.5104
vn -0.6482 -0.0777 0.7575
vn 0.4859 -0.8047 0.3412
vn 0.3430 -0.9218 -0.1807
vn 0.4294 -0.9027 -0.0263
vn 0.4762 -0.8768 0.0661
vn 0.9191 -0.1471 -0.3655
vn 0.9621 -0.2728 0.0005
vn 0.9492 -0.2403 0.2029
vn -0.8566 -0.0753 0.5104
vn -0.9643 -0.1703 0.2029
vn -0.9794 -0.2018 0.0005
vn -0.5390 -0.8397 0.0661
vn -0.4942 -0.8690 -0.0263
vn -0.4095 -0.8942 -0.1807
vn -0.5433 -0.7671 0.3412
vn 0.6408 -0.1249 0.7575
vn 0.4905 -0.5912 0.6402
vn -0.9239 -0.3826 -0.0000
vn -0.9265 -0.3348 0.1720
vn -0.7944 -0.3731 0.4793
vn 0.8995 -0.4016 0.1720
vn 0.8935 -0.4491 -0.0000
vn 0.8807 -0.3898 -0.2693
vn -0.5324 -0.5538 0.6402
vn 0.7650 -0.4302 0.4793
vn -0.9068 -0.3244 -0.2693
vn 0.0365 0.9993 -0.0000
vn -0.8349 0.1649 -0.5251
vn -0.0000 -0.0000 1.0000
vn -0.7285 0.0710 -0.6814
vn -0.9424 0.2632 -0.2065
vn -0.9654 0.2606 -0.0114
vn -0.9678 0.2517 -0.0105
vn -0.9653 0.2607 -0.0114
vn -0.9237 0.1270 0.3614
vn 0.9836 0.1803 -0.0105
vn 0.9818 0.1894 -0.0114
vn 0.9818 0.1895 -0.0114
vn 0.7317 0.0176 -0.6814
vn 0.8447 0.1035 -0.5251
vn 0.9591 0.1937 -0.2065
vn 0.9305 0.0591 0.3614
vn 0.0023 0.0632 -0.9980
vn 0.9709 0.1349 -0.1980
vn 0.9836 0.1800 -0.0105
vn 0.0031 0.0855 0.9963
vn -0.9678 0.2514 -0.0105
vn -0.9584 0.2055 -0.1980
vn 0.0732 0.9972 0.0165
vn 0.0877 0.9961 -0.0042
vn 0.0866 0.9962 -0.0107
vn 0.0877 0.9961 -0.0047
vn 0.0865 0.9962 -0.0112
vn 0.0010 0.9987 -0.0516
vn 0.0615 0.9978 -0.0253
vn 0.0115 0.9996 -0.0253
vn 0.0719 0.9961 -0.0516
vn -0.0135 0.9998 -0.0112
vn -0.0136 0.9999 -0.0107
vn -0.0147 0.9999 -0.0047
vn -0.0147 0.9999 -0.0042
vn -0.0001 0.9999 0.0165
vn 0.0365 0.9986 0.0388
vt 0.157731 0.800946
vt 0.113986 0.533923
vt 0.872409 0.739094
vt 0.839998 0.521011
vt 0.157732 0.800942
vt 0.113987 0.533925
vt 0.872412 0.739092
vt 0.839997 0.521017
vt 0.741417 0.783317
vt 0.556003 0.784600
vt 0.305919 0.781672
vt 0.313845 0.543123
vt 0.548883 0.539676
vt 0.711992 0.529550
vt 0.305916 0.781666
vt 0.556015 0.784597
vt 0.741418 0.783309
vt 0.711993 0.529550
vt 0.548888 0.539678
vt 0.313851 0.543121
vt 1.002320 0.808669
vt 0.941314 0.444917
vt 0.079770 0.879188
vt -0.001374 0.522983
vt 0.056790 0.475002
vt 0.917217 0.416915
vt 0.848359 0.987783
vt 0.572299 0.996180
vt 0.255491 0.991061
vt 0.111885 0.687726
vt 0.855474 0.640866
vt 0.855477 0.640874
vt 0.111890 0.687724
vt 0.728971 0.667331
vt 0.552308 0.682204
vt 0.308867 0.683885
vt 0.308862 0.683887
vt 0.552303 0.682202
vt 0.728966 0.667336
vt 0.015143 0.721850
vt 1.002329 0.612574
vt 0.687485 0.389561
vt 0.850160 0.005907
vt 0.687481 0.389562
vt 0.540961 0.409833
vt 0.218652 0.006396
vt 0.338367 0.397439
vt 0.898749 0.307402
vt 0.070660 0.346362
vt 0.162913 0.368721
vt 0.808097 0.383336
vt 0.335818 0.509338
vt 0.121852 0.156460
vt 0.162916 0.368719
vt 0.542656 0.513331
vt 0.380041 0.337025
vt 0.308450 0.004954
vt 0.540173 0.359099
vt 0.565709 0.006423
vt 0.808106 0.383336
vt 0.986250 0.111096
vt 0.663458 0.347735
vt 0.787728 0.004278
vt 0.663454 0.347729
vt 0.540165 0.359098
vt 0.380038 0.337025
vt 0.690307 0.502945
vt 0.690303 0.502944
vt 0.338361 0.397437
vt 0.540963 0.409832
vt 0.157428 0.492641
vt 0.825815 0.490649
vt 0.157429 0.492645
vt 0.825816 0.490651
vt 0.335818 0.509341
vt 0.542649 0.513324
s 1
usemtl Material.001
f 39/39/1 14/14/1 4/4/1 31/31/1
f 41/41/2 22/22/2 8/8/2 32/32/2
f 36/36/3 20/20/3 6/6/3 33/33/3
f 40/40/4 24/24/4 2/2/4 30/30/4
f 29/29/5 15/15/5 5/5/5 23/23/5
f 21/21/6 7/7/6 17/17/6 27/27/6
f 27/27/7 17/17/7 16/16/7 28/28/7
f 28/28/8 16/16/8 15/15/8 29/29/8
f 32/32/9 8/8/9 18/18/9 34/34/9
f 34/34/10 18/18/10 19/19/10 35/35/10
f 35/35/11 19/19/11 20/20/11 36/36/11
f 30/30/12 2/2/12 12/12/12 37/37/12
f 37/37/13 12/12/13 13/13/13 38/38/13
f 38/38/14 13/13/14 14/14/14 39/39/14
f 10/10/15 28/28/15 29/29/15 11/11/15
f 9/9/16 27/27/16 28/28/16 10/10/16
f 3/3/17 21/21/17 27/27/17 9/9/17
f 11/11/18 29/29/18 23/23/18 1/1/18
f 33/33/19 6/6/19 24/24/19 40/40/19
f 31/31/2 4/4/2 22/22/2 41/41/2
f 3/3/2 31/31/2 41/41/2 21/21/2
f 5/5/20 33/33/20 40/40/20 23/23/20
f 10/10/21 38/38/21 39/39/21 9/9/21
f 11/11/22 37/37/22 38/38/22 10/10/22
f 1/1/23 30/30/23 37/37/23 11/11/23
f 16/16/24 35/35/24 36/36/24 15/15/24
f 17/17/25 34/34/25 35/35/25 16/16/25
f 7/7/26 32/32/26 34/34/26 17/17/26
f 23/23/27 40/40/27 30/30/27 1/1/27
f 15/15/28 36/36/28 33/33/28 5/5/28
f 21/21/2 41/41/2 32/32/2 7/7/2
f 9/9/29 39/39/29 31/31/29 3/3/29
f 48/50/30 47/49/30 51/53/30 45/46/30 62/69/30
f 45/47/31 51/54/31 66/73/31 50/52/31
f 46/48/32 55/60/32 67/74/32 26/26/32
f 51/54/33 47/49/33 25/25/33 66/73/33
f 44/45/34 45/47/34 50/52/34 52/55/34
f 43/44/35 44/45/36 52/55/37 60/67/37
f 55/60/38 43/44/38 60/67/38 67/74/38
f 63/70/39 42/42/40 61/68/41 69/76/41
f 47/49/42 48/50/42 64/71/42 25/25/42
f 48/50/43 62/69/43 68/75/43 64/71/43
f 49/51/32 46/48/32 26/26/32 65/72/32
f 62/69/44 63/70/44 69/76/44 68/75/44
f 55/61/30 46/48/30 49/51/30 42/42/30 43/43/30
f 42/42/45 49/51/45 65/72/45 61/68/45
f 62/69/46 45/46/46 53/57/46 59/66/46
f 58/65/47 63/70/47 62/69/47 59/66/47
f 57/64/48 42/42/40 63/70/39 58/65/48
f 42/42/49 57/64/49 56/63/49 43/43/49
f 54/58/50 44/45/36 43/44/35 56/62/50
f 45/47/51 44/45/51 54/58/51 53/56/51
f 59/66/30 53/57/30 54/59/30 58/65/30
f 56/63/30 57/64/30 58/65/30 54/59/30
f 4/4/52 14/14/52 61/68/52 65/72/52
f 61/68/53 14/14/53 13/13/54 69/76/55
f 69/76/55 13/13/54 12/12/56 68/75/56
f 68/75/57 12/12/57 2/2/57 64/71/57
f 64/71/58 2/2/58 24/24/58 25/25/58
f 25/25/59 24/24/59 6/6/59 66/73/59
f 66/73/60 6/6/60 20/20/60 50/52/60
f 50/52/61 20/20/61 19/19/62 52/55/63
f 52/55/63 19/19/62 18/18/64 60/67/64
f 60/67/65 18/18/65 8/8/65 67/74/65
f 67/74/66 8/8/66 22/22/66 26/26/66
f 26/26/66 22/22/66 4/4/66 65/72/66
